<svg xmlns:dc="http://purl.org/dc/elements/1.1/" xmlns:cc="http://creativecommons.org/ns#" xmlns:rdf="http://www.w3.org/1999/02/22-rdf-syntax-ns#" xmlns:svg="http://www.w3.org/2000/svg" xmlns="http://www.w3.org/2000/svg" viewBox="0 0 180 180"><metadata><rdf:RDF><cc:Work><dc:format>image/svg+xml</dc:format><dc:type rdf:resource="http://purl.org/dc/dcmitype/StillImage"/><dc:title>Bottts</dc:title><dc:creator><cc:Agent><dc:title>Pablo Stanley</dc:title></cc:Agent></dc:creator><dc:source>https://bottts.com/</dc:source><cc:license rdf:resource="https://bottts.com/"/><dc:contributor><cc:Agent><dc:title>Florian Körner</dc:title></cc:Agent></dc:contributor></cc:Work></rdf:RDF></metadata><mask id="avatarsRadiusMask"><rect width="180" height="180" rx="0" ry="0" x="0" y="0" fill="#fff"/></mask><g mask="url(#avatarsRadiusMask)"><g transform="translate(0, 66)"><g opacity="0.9"><path id="Cable" d="M38 12C35.046 23.6966 18.0959 18.6663 14.6313 30.009C11.1668 41.3518 22.6565 50 32.1552 50" stroke="#2A3544" stroke-width="6"/><path id="Cable_2" d="M150 55C158.394 58.4864 170.102 47.4063 166 38.5C161.898 29.5936 150 31.8056 150 19.195" stroke="#2A3544" stroke-width="4"/></g><path fill-rule="evenodd" clip-rule="evenodd" d="M138 6C136.895 6 136 6.89543 136 8V22C136 23.1046 136.895 24 138 24H157C158.105 24 159 23.1046 159 22V8C159 6.89543 158.105 6 157 6H138ZM21 37C21 35.8954 21.8954 35 23 35H35C36.1046 35 37 35.8954 37 37V55C37 56.1046 36.1046 57 35 57H23C21.8954 57 21 56.1046 21 55V37ZM136 44C136 42.8954 136.895 42 138 42H157C158.105 42 159 42.8954 159 44V62C159 63.1046 158.105 64 157 64H138C136.895 64 136 63.1046 136 62V44Z" fill="#273951"/><mask id="sidesCables01Mask0" mask-type="alpha" maskUnits="userSpaceOnUse" x="21" y="6" width="138" height="58"><path fill-rule="evenodd" clip-rule="evenodd" d="M138 6C136.895 6 136 6.89543 136 8V22C136 23.1046 136.895 24 138 24H157C158.105 24 159 23.1046 159 22V8C159 6.89543 158.105 6 157 6H138ZM21 37C21 35.8954 21.8954 35 23 35H35C36.1046 35 37 35.8954 37 37V55C37 56.1046 36.1046 57 35 57H23C21.8954 57 21 56.1046 21 55V37ZM136 44C136 42.8954 136.895 42 138 42H157C158.105 42 159 42.8954 159 44V62C159 63.1046 158.105 64 157 64H138C136.895 64 136 63.1046 136 62V44Z" fill="white"/></mask><g mask="url(#sidesCables01Mask0)"><rect width="180" height="76" fill="#66BB6A"/></g></g><g transform="translate(41, 0)"><path fill-rule="evenodd" clip-rule="evenodd" d="M23 22C20.2386 22 18 24.2386 18 27V40H12C10.8954 40 10 40.8954 10 42V52H18H34H42H58H66H82H90V42C90 40.8954 89.1046 40 88 40H82V27C82 24.2386 79.7614 22 77 22H71C68.2386 22 66 24.2386 66 27V40H58V27C58 24.2386 55.7614 22 53 22H47C44.2386 22 42 24.2386 42 27V40H34V27C34 24.2386 31.7614 22 29 22H23Z" fill="#E1E6E8"/><mask id="topLightsMask0" mask-type="alpha" maskUnits="userSpaceOnUse" x="10" y="22" width="80" height="30"><path fill-rule="evenodd" clip-rule="evenodd" d="M23 22C20.2386 22 18 24.2386 18 27V40H12C10.8954 40 10 40.8954 10 42V52H18H34H42H58H66H82H90V42C90 40.8954 89.1046 40 88 40H82V27C82 24.2386 79.7614 22 77 22H71C68.2386 22 66 24.2386 66 27V40H58V27C58 24.2386 55.7614 22 53 22H47C44.2386 22 42 24.2386 42 27V40H34V27C34 24.2386 31.7614 22 29 22H23Z" fill="white"/></mask><g mask="url(#topLightsMask0)"><rect width="100" height="52" fill="#66BB6A"/><rect width="100" height="40" fill="white" fill-opacity="0.6"/><rect x="24" y="28" width="4" height="8" rx="2" fill="white" fill-opacity="0.6"/><rect x="48" y="28" width="4" height="8" rx="2" fill="white" fill-opacity="0.6"/><rect x="72" y="28" width="4" height="8" rx="2" fill="white" fill-opacity="0.6"/></g></g><g transform="translate(25, 44)"><path fill-rule="evenodd" clip-rule="evenodd" d="M0 18C0 8.05888 8.05888 0 18 0H112C121.941 0 130 8.05888 130 18V45.1483C130 49.6831 129.229 54.1848 127.72 58.4611L110.239 107.991C107.699 115.187 100.896 120 93.2647 120H36.7353C29.1036 120 22.3014 115.187 19.7614 107.991L2.28038 58.4611C0.771117 54.1848 0 49.6831 0 45.1483L0 18Z" fill="#0076DE"/><mask id="faceSquare03Mask0" mask-type="alpha" maskUnits="userSpaceOnUse" x="0" y="0" width="130" height="120"><path fill-rule="evenodd" clip-rule="evenodd" d="M0 18C0 8.05888 8.05888 0 18 0H112C121.941 0 130 8.05888 130 18V45.1483C130 49.6831 129.229 54.1848 127.72 58.4611L110.239 107.991C107.699 115.187 100.896 120 93.2647 120H36.7353C29.1036 120 22.3014 115.187 19.7614 107.991L2.28038 58.4611C0.771117 54.1848 0 49.6831 0 45.1483L0 18Z" fill="white"/></mask><g mask="url(#faceSquare03Mask0)"><rect x="-2" y="-2" width="134" height="124" fill="#43A047"/></g></g><g transform="translate(52, 124)"><path fill-rule="evenodd" clip-rule="evenodd" d="M18 10.2222C18 21.7845 24.4741 28 38 28C51.5182 28 58 21.6615 58 10.2222C58 9.49622 57.1739 8 55 8C39.2707 8 29.1917 8 21 8C18.949 8 18 9.38479 18 10.2222Z" fill="black" fill-opacity="0.8"/><mask id="mouthSmilie02Mask0" mask-type="alpha" maskUnits="userSpaceOnUse" x="18" y="8" width="40" height="20"><path fill-rule="evenodd" clip-rule="evenodd" d="M18 10.2222C18 21.7845 24.4741 28 38 28C51.5182 28 58 21.6615 58 10.2222C58 9.49622 57.1739 8 55 8C39.2707 8 29.1917 8 21 8C18.949 8 18 9.38479 18 10.2222Z" fill="white"/></mask><g mask="url(#mouthSmilie02Mask0)"><rect x="30" y="2" width="16" height="14" rx="2" fill="white"/></g></g><g transform="translate(38, 76)"><path fill-rule="evenodd" clip-rule="evenodd" d="M21 45C29.2843 45 36 38.2843 36 30C36 21.7157 29.2843 15 21 15C12.7157 15 6 21.7157 6 30C6 38.2843 12.7157 45 21 45Z" fill="white" fill-opacity="0.1"/><path fill-rule="evenodd" clip-rule="evenodd" d="M83 45C91.2843 45 98 38.2843 98 30C98 21.7157 91.2843 15 83 15C74.7157 15 68 21.7157 68 30C68 38.2843 74.7157 45 83 45Z" fill="white" fill-opacity="0.1"/><path fill-rule="evenodd" clip-rule="evenodd" d="M21 42C27.6274 42 33 36.6274 33 30C33 23.3726 27.6274 18 21 18C14.3726 18 9 23.3726 9 30C9 36.6274 14.3726 42 21 42Z" fill="white" fill-opacity="0.1"/><path fill-rule="evenodd" clip-rule="evenodd" d="M83 42C89.6274 42 95 36.6274 95 30C95 23.3726 89.6274 18 83 18C76.3726 18 71 23.3726 71 30C71 36.6274 76.3726 42 83 42Z" fill="white" fill-opacity="0.1"/><path fill-rule="evenodd" clip-rule="evenodd" d="M21 36C24.3137 36 27 33.3137 27 30C27 26.6863 24.3137 24 21 24C17.6863 24 15 26.6863 15 30C15 33.3137 17.6863 36 21 36Z" fill="white" fill-opacity="0.8"/><path fill-rule="evenodd" clip-rule="evenodd" d="M83 36C86.3137 36 89 33.3137 89 30C89 26.6863 86.3137 24 83 24C79.6863 24 77 26.6863 77 30C77 33.3137 79.6863 36 83 36Z" fill="white" fill-opacity="0.8"/><path fill-rule="evenodd" clip-rule="evenodd" d="M21 33C22.6569 33 24 31.6569 24 30C24 28.3431 22.6569 27 21 27C19.3431 27 18 28.3431 18 30C18 31.6569 19.3431 33 21 33Z" fill="white" fill-opacity="0.8"/><path fill-rule="evenodd" clip-rule="evenodd" d="M83 33C84.6569 33 86 31.6569 86 30C86 28.3431 84.6569 27 83 27C81.3431 27 80 28.3431 80 30C80 31.6569 81.3431 33 83 33Z" fill="white" fill-opacity="0.8"/></g></g></svg>