<svg xmlns:dc="http://purl.org/dc/elements/1.1/" xmlns:cc="http://creativecommons.org/ns#" xmlns:rdf="http://www.w3.org/1999/02/22-rdf-syntax-ns#" xmlns:svg="http://www.w3.org/2000/svg" xmlns="http://www.w3.org/2000/svg" viewBox="0 0 180 180"><metadata><rdf:RDF><cc:Work><dc:format>image/svg+xml</dc:format><dc:type rdf:resource="http://purl.org/dc/dcmitype/StillImage"/><dc:title>Bottts</dc:title><dc:creator><cc:Agent><dc:title>Pablo Stanley</dc:title></cc:Agent></dc:creator><dc:source>https://bottts.com/</dc:source><cc:license rdf:resource="https://bottts.com/"/><dc:contributor><cc:Agent><dc:title>Florian Körner</dc:title></cc:Agent></dc:contributor></cc:Work></rdf:RDF></metadata><mask id="avatarsRadiusMask"><rect width="180" height="180" rx="0" ry="0" x="0" y="0" fill="#fff"/></mask><g mask="url(#avatarsRadiusMask)"><g transform="translate(0, 66)"><g opacity="0.9"><path id="Cable" d="M38 12C35.046 23.6966 18.0959 18.6663 14.6313 30.009C11.1668 41.3518 22.6565 50 32.1552 50" stroke="#2A3544" stroke-width="6"/><path id="Cable_2" d="M150 55C158.394 58.4864 170.102 47.4063 166 38.5C161.898 29.5936 150 31.8056 150 19.195" stroke="#2A3544" stroke-width="4"/></g><path fill-rule="evenodd" clip-rule="evenodd" d="M138 6C136.895 6 136 6.89543 136 8V22C136 23.1046 136.895 24 138 24H157C158.105 24 159 23.1046 159 22V8C159 6.89543 158.105 6 157 6H138ZM21 37C21 35.8954 21.8954 35 23 35H35C36.1046 35 37 35.8954 37 37V55C37 56.1046 36.1046 57 35 57H23C21.8954 57 21 56.1046 21 55V37ZM136 44C136 42.8954 136.895 42 138 42H157C158.105 42 159 42.8954 159 44V62C159 63.1046 158.105 64 157 64H138C136.895 64 136 63.1046 136 62V44Z" fill="#273951"/><mask id="sidesCables01Mask0" mask-type="alpha" maskUnits="userSpaceOnUse" x="21" y="6" width="138" height="58"><path fill-rule="evenodd" clip-rule="evenodd" d="M138 6C136.895 6 136 6.89543 136 8V22C136 23.1046 136.895 24 138 24H157C158.105 24 159 23.1046 159 22V8C159 6.89543 158.105 6 157 6H138ZM21 37C21 35.8954 21.8954 35 23 35H35C36.1046 35 37 35.8954 37 37V55C37 56.1046 36.1046 57 35 57H23C21.8954 57 21 56.1046 21 55V37ZM136 44C136 42.8954 136.895 42 138 42H157C158.105 42 159 42.8954 159 44V62C159 63.1046 158.105 64 157 64H138C136.895 64 136 63.1046 136 62V44Z" fill="white"/></mask><g mask="url(#sidesCables01Mask0)"><rect width="180" height="76" fill="#78909C"/></g></g><g transform="translate(41, 0)"><path fill-rule="evenodd" clip-rule="evenodd" d="M23 22C20.2386 22 18 24.2386 18 27V40H12C10.8954 40 10 40.8954 10 42V52H18H34H42H58H66H82H90V42C90 40.8954 89.1046 40 88 40H82V27C82 24.2386 79.7614 22 77 22H71C68.2386 22 66 24.2386 66 27V40H58V27C58 24.2386 55.7614 22 53 22H47C44.2386 22 42 24.2386 42 27V40H34V27C34 24.2386 31.7614 22 29 22H23Z" fill="#E1E6E8"/><mask id="topLightsMask0" mask-type="alpha" maskUnits="userSpaceOnUse" x="10" y="22" width="80" height="30"><path fill-rule="evenodd" clip-rule="evenodd" d="M23 22C20.2386 22 18 24.2386 18 27V40H12C10.8954 40 10 40.8954 10 42V52H18H34H42H58H66H82H90V42C90 40.8954 89.1046 40 88 40H82V27C82 24.2386 79.7614 22 77 22H71C68.2386 22 66 24.2386 66 27V40H58V27C58 24.2386 55.7614 22 53 22H47C44.2386 22 42 24.2386 42 27V40H34V27C34 24.2386 31.7614 22 29 22H23Z" fill="white"/></mask><g mask="url(#topLightsMask0)"><rect width="100" height="52" fill="#78909C"/><rect width="100" height="40" fill="white" fill-opacity="0.6"/><rect x="24" y="28" width="4" height="8" rx="2" fill="white" fill-opacity="0.6"/><rect x="48" y="28" width="4" height="8" rx="2" fill="white" fill-opacity="0.6"/><rect x="72" y="28" width="4" height="8" rx="2" fill="white" fill-opacity="0.6"/></g></g><g transform="translate(25, 44)"><rect width="130" height="120" rx="18" fill="#0076DE"/><mask id="faceSquare01Mask0" mask-type="alpha" maskUnits="userSpaceOnUse" x="0" y="0" width="130" height="120"><rect width="130" height="120" rx="18" fill="white"/></mask><g mask="url(#faceSquare01Mask0)"><rect x="-2" y="-2" width="134" height="124" fill="#546E7A"/></g></g><g transform="translate(52, 124)"><rect x="24" y="6" width="27" height="8" rx="4" fill="black" fill-opacity="0.8"/></g><g transform="translate(38, 76)"><path fill-rule="evenodd" clip-rule="evenodd" d="M28 42C37.9411 42 46 33.9411 46 24C46 14.0589 37.9411 6 28 6C18.0589 6 10 14.0589 10 24C10 33.9411 18.0589 42 28 42Z" fill="black" fill-opacity="0.2"/><path fill-rule="evenodd" clip-rule="evenodd" d="M74 42C83.9411 42 92 33.9411 92 24C92 14.0589 83.9411 6 74 6C64.0589 6 56 14.0589 56 24C56 33.9411 64.0589 42 74 42Z" fill="black" fill-opacity="0.2"/><path fill-rule="evenodd" clip-rule="evenodd" d="M28 39C36.2843 39 43 32.2843 43 24C43 15.7157 36.2843 9 28 9C19.7157 9 13 15.7157 13 24C13 32.2843 19.7157 39 28 39Z" fill="#F1EEDA"/><path fill-rule="evenodd" clip-rule="evenodd" d="M74 39C82.2843 39 89 32.2843 89 24C89 15.7157 82.2843 9 74 9C65.7157 9 59 15.7157 59 24C59 32.2843 65.7157 39 74 39Z" fill="#F1EEDA"/><rect x="26" y="15" width="10" height="10" rx="2" fill="black" fill-opacity="0.8"/><rect x="74" y="15" width="10" height="10" rx="2" fill="black" fill-opacity="0.8"/></g></g></svg>