<svg xmlns:dc="http://purl.org/dc/elements/1.1/" xmlns:cc="http://creativecommons.org/ns#" xmlns:rdf="http://www.w3.org/1999/02/22-rdf-syntax-ns#" xmlns:svg="http://www.w3.org/2000/svg" xmlns="http://www.w3.org/2000/svg" viewBox="0 0 180 180"><metadata><rdf:RDF><cc:Work><dc:format>image/svg+xml</dc:format><dc:type rdf:resource="http://purl.org/dc/dcmitype/StillImage"/><dc:title>Bottts</dc:title><dc:creator><cc:Agent><dc:title>Pablo Stanley</dc:title></cc:Agent></dc:creator><dc:source>https://bottts.com/</dc:source><cc:license rdf:resource="https://bottts.com/"/><dc:contributor><cc:Agent><dc:title>Florian Körner</dc:title></cc:Agent></dc:contributor></cc:Work></rdf:RDF></metadata><mask id="avatarsRadiusMask"><rect width="180" height="180" rx="0" ry="0" x="0" y="0" fill="#fff"/></mask><g mask="url(#avatarsRadiusMask)"><g transform="translate(0, 66)"><path fill-rule="evenodd" clip-rule="evenodd" d="M13 11H11V31H12.4C10.1598 31 9.03969 31 8.18404 31.436C7.43139 31.8195 6.81947 32.4314 6.43597 33.184C6 34.0397 6 35.1598 6 37.4V38.6C6 40.8402 6 41.9603 6.43597 42.816C6.81947 43.5686 7.43139 44.1805 8.18404 44.564C9.03969 45 10.1598 45 12.4 45H18V55.6C18 57.8402 18 58.9603 18.436 59.816C18.8195 60.5686 19.4314 61.1805 20.184 61.564C21.0397 62 22.1598 62 24.4 62H47.6C49.8402 62 50.9603 62 51.816 61.564C52.5686 61.1805 53.1805 60.5686 53.564 59.816C54 58.9603 54 57.8402 54 55.6V20.4C54 18.1598 54 17.0397 53.564 16.184C53.1805 15.4314 52.5686 14.8195 51.816 14.436C50.9603 14 49.8402 14 47.6 14H24.4C22.1598 14 21.0397 14 20.184 14.436C19.4314 14.8195 18.8195 15.4314 18.436 16.184C18 17.0397 18 18.1598 18 20.4V31H13V11ZM126 34.4C126 32.1598 126 31.0397 126.436 30.184C126.819 29.4314 127.431 28.8195 128.184 28.436C129.04 28 130.16 28 132.4 28H155.6C157.84 28 158.96 28 159.816 28.436C160.569 28.8195 161.181 29.4314 161.564 30.184C162 31.0397 162 32.1598 162 34.4V45.6C162 47.8402 162 48.9603 161.564 49.816C161.181 50.5686 160.569 51.1805 159.816 51.564C158.96 52 157.84 52 155.6 52H132.4C130.16 52 129.04 52 128.184 51.564C127.431 51.1805 126.819 50.5686 126.436 49.816C126 48.9603 126 47.8402 126 45.6V34.4Z" fill="#0076DE"/><mask id="sidesAntenna01Mask0" mask-type="alpha" maskUnits="userSpaceOnUse" x="6" y="11" width="156" height="51"><path fill-rule="evenodd" clip-rule="evenodd" d="M13 11H11V31H12.4C10.1598 31 9.03969 31 8.18404 31.436C7.43139 31.8195 6.81947 32.4314 6.43597 33.184C6 34.0397 6 35.1598 6 37.4V38.6C6 40.8402 6 41.9603 6.43597 42.816C6.81947 43.5686 7.43139 44.1805 8.18404 44.564C9.03969 45 10.1598 45 12.4 45H18V55.6C18 57.8402 18 58.9603 18.436 59.816C18.8195 60.5686 19.4314 61.1805 20.184 61.564C21.0397 62 22.1598 62 24.4 62H47.6C49.8402 62 50.9603 62 51.816 61.564C52.5686 61.1805 53.1805 60.5686 53.564 59.816C54 58.9603 54 57.8402 54 55.6V20.4C54 18.1598 54 17.0397 53.564 16.184C53.1805 15.4314 52.5686 14.8195 51.816 14.436C50.9603 14 49.8402 14 47.6 14H24.4C22.1598 14 21.0397 14 20.184 14.436C19.4314 14.8195 18.8195 15.4314 18.436 16.184C18 17.0397 18 18.1598 18 20.4V31H13V11ZM126 34.4C126 32.1598 126 31.0397 126.436 30.184C126.819 29.4314 127.431 28.8195 128.184 28.436C129.04 28 130.16 28 132.4 28H155.6C157.84 28 158.96 28 159.816 28.436C160.569 28.8195 161.181 29.4314 161.564 30.184C162 31.0397 162 32.1598 162 34.4V45.6C162 47.8402 162 48.9603 161.564 49.816C161.181 50.5686 160.569 51.1805 159.816 51.564C158.96 52 157.84 52 155.6 52H132.4C130.16 52 129.04 52 128.184 51.564C127.431 51.1805 126.819 50.5686 126.436 49.816C126 48.9603 126 47.8402 126 45.6V34.4Z" fill="white"/></mask><g mask="url(#sidesAntenna01Mask0)"><rect width="180" height="76" fill="#5C6BC0"/><rect y="38" width="180" height="38" fill="black" fill-opacity="0.1"/></g><rect x="11" y="11" width="2" height="20" fill="white" fill-opacity="0.4"/><path fill-rule="evenodd" clip-rule="evenodd" d="M12 12C14.2091 12 16 10.2091 16 8C16 5.79086 14.2091 4 12 4C9.79086 4 8 5.79086 8 8C8 10.2091 9.79086 12 12 12Z" fill="#FFEA8F"/><path fill-rule="evenodd" clip-rule="evenodd" d="M13 9C14.1046 9 15 8.10457 15 7C15 5.89543 14.1046 5 13 5C11.8954 5 11 5.89543 11 7C11 8.10457 11.8954 9 13 9Z" fill="white"/></g><g transform="translate(41, 0)"><path fill-rule="evenodd" clip-rule="evenodd" d="M53.5683 39L55.5437 34.3851L49.3528 23.7098L52.2483 13.0836L49.3539 12.2949L46.1288 24.1305L52.179 34.5631L50.0881 39H38V52H62V39H53.5683Z" fill="#E6E6E6"/><mask id="topAntennaCrookedMask0" mask-type="alpha" maskUnits="userSpaceOnUse" x="38" y="12" width="24" height="40"><path fill-rule="evenodd" clip-rule="evenodd" d="M53.5683 39L55.5437 34.3851L49.3528 23.7098L52.2483 13.0836L49.3539 12.2949L46.1288 24.1305L52.179 34.5631L50.0881 39H38V52H62V39H53.5683Z" fill="white"/></mask><g mask="url(#topAntennaCrookedMask0)"><rect width="100" height="52" fill="#5C6BC0"/><rect x="38" y="39" width="24" height="13" fill="white" fill-opacity="0.2"/></g><path fill-rule="evenodd" clip-rule="evenodd" d="M50 16C54.4183 16 58 12.4183 58 8C58 3.58172 54.4183 0 50 0C45.5817 0 42 3.58172 42 8C42 12.4183 45.5817 16 50 16Z" fill="#FFE65C"/><path fill-rule="evenodd" clip-rule="evenodd" d="M53 8C54.6569 8 56 6.65685 56 5C56 3.34315 54.6569 2 53 2C51.3431 2 50 3.34315 50 5C50 6.65685 51.3431 8 53 8Z" fill="white"/></g><g transform="translate(25, 44)"><path fill-rule="evenodd" clip-rule="evenodd" d="M0 102V68.8517C0 64.3169 0.77112 59.8152 2.28039 55.5389L19.7614 12.0092C22.3014 4.81263 29.1036 0 36.7353 0L93.2647 0C100.896 0 107.699 4.81263 110.239 12.0092L127.72 55.5389C129.229 59.8152 130 64.3169 130 68.8517V102C130 111.941 121.941 120 112 120H18C8.05887 120 0 111.941 0 102Z" fill="#0076DE"/><mask id="faceSquareMask0" mask-type="alpha" maskUnits="userSpaceOnUse" x="0" y="0" width="130" height="120"><path fill-rule="evenodd" clip-rule="evenodd" d="M0 102V68.8517C0 64.3169 0.77112 59.8152 2.28039 55.5389L19.7614 12.0092C22.3014 4.81263 29.1036 0 36.7353 0L93.2647 0C100.896 0 107.699 4.81263 110.239 12.0092L127.72 55.5389C129.229 59.8152 130 64.3169 130 68.8517V102C130 111.941 121.941 120 112 120H18C8.05887 120 0 111.941 0 102Z" fill="white"/></mask><g mask="url(#faceSquareMask0)"><rect x="-2" y="-2" width="134" height="124" fill="#3949AB"/><path fill-rule="evenodd" clip-rule="evenodd" d="M15 0H11V18H15V0ZM23 0H19V30V34H23H72.416C73.1876 35.7659 74.9497 37 77 37C79.7614 37 82 34.7614 82 32C82 29.2386 79.7614 27 77 27C74.9497 27 73.1876 28.2341 72.416 30H23V0Z" fill="black" fill-opacity="0.1"/><path fill-rule="evenodd" clip-rule="evenodd" d="M122 34.584C123.766 33.8124 125 32.0503 125 30C125 27.2386 122.761 25 120 25C117.239 25 115 27.2386 115 30C115 32.0503 116.234 33.8124 118 34.584V60V64H122H141V60H122V34.584Z" fill="white" fill-opacity="0.2"/><path fill-rule="evenodd" clip-rule="evenodd" d="M114 46H110V68V72H114H141V68H114V46Z" fill="black" fill-opacity="0.2"/><path fill-rule="evenodd" clip-rule="evenodd" d="M27 103.584C25.2341 102.812 24 101.05 24 99C24 96.2386 26.2386 94 29 94C31.7614 94 34 96.2386 34 99C34 101.05 32.7659 102.812 31 103.584V129V133H27H8V129H27V103.584Z" fill="black" fill-opacity="0.2"/></g></g><g transform="translate(52, 124)"><path d="M27.0493 8.44151C26.8055 7.36419 27.4811 6.29318 28.5584 6.04935C29.6358 5.80551 30.7068 6.48119 30.9506 7.55851C31.72 10.9578 34.4016 13 37.9999 13C41.5983 13 44.2799 10.9578 45.0493 7.55851C45.2931 6.48119 46.3641 5.80551 47.4414 6.04935C48.5188 6.29318 49.1944 7.36419 48.9506 8.44151C47.7599 13.7024 43.4298 17 37.9999 17C32.5701 17 28.24 13.7024 27.0493 8.44151Z" fill="black" fill-opacity="0.6"/></g><g transform="translate(38, 76)"><path fill-rule="evenodd" clip-rule="evenodd" d="M24 36C27.3137 36 30 33.3137 30 30C30 26.6863 27.3137 24 24 24C20.6863 24 18 26.6863 18 30C18 33.3137 20.6863 36 24 36Z" fill="white"/><path fill-rule="evenodd" clip-rule="evenodd" d="M80 36C83.3137 36 86 33.3137 86 30C86 26.6863 83.3137 24 80 24C76.6863 24 74 26.6863 74 30C74 33.3137 76.6863 36 80 36Z" fill="white"/></g></g></svg>