<svg xmlns:dc="http://purl.org/dc/elements/1.1/" xmlns:cc="http://creativecommons.org/ns#" xmlns:rdf="http://www.w3.org/1999/02/22-rdf-syntax-ns#" xmlns:svg="http://www.w3.org/2000/svg" xmlns="http://www.w3.org/2000/svg" viewBox="0 0 180 180"><metadata><rdf:RDF><cc:Work><dc:format>image/svg+xml</dc:format><dc:type rdf:resource="http://purl.org/dc/dcmitype/StillImage"/><dc:title>Bottts</dc:title><dc:creator><cc:Agent><dc:title>Pablo Stanley</dc:title></cc:Agent></dc:creator><dc:source>https://bottts.com/</dc:source><cc:license rdf:resource="https://bottts.com/"/><dc:contributor><cc:Agent><dc:title>Florian Körner</dc:title></cc:Agent></dc:contributor></cc:Work></rdf:RDF></metadata><mask id="avatarsRadiusMask"><rect width="180" height="180" rx="0" ry="0" x="0" y="0" fill="#fff"/></mask><g mask="url(#avatarsRadiusMask)"><g transform="translate(0, 66)"><g opacity="0.9"><path fill-rule="evenodd" clip-rule="evenodd" d="M32.5 41C41.6127 41 49 32.9411 49 23C49 13.0589 41.6127 5 32.5 5C23.3873 5 16 13.0589 16 23C16 32.9411 23.3873 41 32.5 41Z" stroke="#2A3544" stroke-width="6"/><path d="M29.5152 36.7649C22.1017 41.0451 12.5101 38.3112 8.0918 30.6585" stroke="#2A3544" stroke-width="4"/><path fill-rule="evenodd" clip-rule="evenodd" d="M28 67C37.3888 67 45 60.5081 45 52.5C45 44.4919 37.3888 38 28 38C18.6112 38 12 44.4919 12 52.5C12 60.5081 18.6112 67 28 67Z" stroke="#2A3544" stroke-width="4"/><path d="M168.606 60.4234C164.326 53.0099 154.653 50.5817 147 55" stroke="#2A3544" stroke-width="4"/><path fill-rule="evenodd" clip-rule="evenodd" d="M148 38C157.389 38 165 31.0604 165 22.5C165 13.9396 157.389 7 148 7C138.611 7 132 13.9396 132 22.5C132 31.0604 138.611 38 148 38Z" stroke="#2A3544" stroke-width="6"/></g><path fill-rule="evenodd" clip-rule="evenodd" d="M145 0C143.895 0 143 0.89543 143 2V20C143 21.1046 143.895 22 145 22H157C158.105 22 159 21.1046 159 20V2C159 0.895431 158.105 0 157 0H145ZM23 27C21.8954 27 21 27.8954 21 29V47C21 48.1046 21.8954 49 23 49H35C36.1046 49 37 48.1046 37 47V29C37 27.8954 36.1046 27 35 27H23ZM24 60C22.8954 60 22 60.8954 22 62V70C22 71.1046 22.8954 72 24 72H36C37.1046 72 38 71.1046 38 70V62C38 60.8954 37.1046 60 36 60H24ZM143 44C143 42.8954 143.895 42 145 42H157C158.105 42 159 42.8954 159 44V62C159 63.1046 158.105 64 157 64H145C143.895 64 143 63.1046 143 62V44Z" fill="#273951"/><mask id="sidesCables01Mask0" mask-type="alpha" maskUnits="userSpaceOnUse" x="21" y="0" width="138" height="72"><path fill-rule="evenodd" clip-rule="evenodd" d="M145 0C143.895 0 143 0.89543 143 2V20C143 21.1046 143.895 22 145 22H157C158.105 22 159 21.1046 159 20V2C159 0.895431 158.105 0 157 0H145ZM23 27C21.8954 27 21 27.8954 21 29V47C21 48.1046 21.8954 49 23 49H35C36.1046 49 37 48.1046 37 47V29C37 27.8954 36.1046 27 35 27H23ZM24 60C22.8954 60 22 60.8954 22 62V70C22 71.1046 22.8954 72 24 72H36C37.1046 72 38 71.1046 38 70V62C38 60.8954 37.1046 60 36 60H24ZM143 44C143 42.8954 143.895 42 145 42H157C158.105 42 159 42.8954 159 44V62C159 63.1046 158.105 64 157 64H145C143.895 64 143 63.1046 143 62V44Z" fill="white"/></mask><g mask="url(#sidesCables01Mask0)"><rect width="180" height="76" fill="#AB47BC"/></g></g><g transform="translate(41, 0)"><path fill-rule="evenodd" clip-rule="evenodd" d="M48 0C39.1634 0 32 7.16344 32 16V32C32 36.4183 35.5817 40 40 40H23C22.4477 40 22 40.4477 22 41V51C22 51.5523 22.4477 52 23 52H77C77.5523 52 78 51.5523 78 51V41C78 40.4477 77.5523 40 77 40H60C64.4183 40 68 36.4183 68 32V16C68 7.16344 60.8366 0 52 0H48Z" fill="#59C4FF"/><mask id="topBulb011Mask0" mask-type="alpha" maskUnits="userSpaceOnUse" x="22" y="0" width="56" height="52"><path fill-rule="evenodd" clip-rule="evenodd" d="M48 0C39.1634 0 32 7.16344 32 16V32C32 36.4183 35.5817 40 40 40H23C22.4477 40 22 40.4477 22 41V51C22 51.5523 22.4477 52 23 52H77C77.5523 52 78 51.5523 78 51V41C78 40.4477 77.5523 40 77 40H60C64.4183 40 68 36.4183 68 32V16C68 7.16344 60.8366 0 52 0H48Z" fill="white"/></mask><g mask="url(#topBulb011Mask0)"><rect width="100" height="52" fill="#AB47BC"/><rect x="20" y="-3" width="60" height="43" fill="white" fill-opacity="0.4"/><path d="M49 3.5C53.9315 3.5 58.366 5.62814 61.4352 9.01616" stroke="white" stroke-width="2" stroke-linecap="round"/><path fill-rule="evenodd" clip-rule="evenodd" d="M49.8284 26L40.8284 17L38 19.8284L48 29.8284V40H52V29.9706L62.1421 19.8284L59.3137 17L50.3137 26H49.8284Z" fill="white" fill-opacity="0.8"/></g></g><g transform="translate(25, 44)"><path fill-rule="evenodd" clip-rule="evenodd" d="M0 31C0 31.0205 0.0141049 30.8164 0 30C0.183375 29.5235 0.402009 28.5029 1 27C1.82671 23.944 3.7804 20.4435 7 17C16.6944 6.60017 35.1724 0 65 0C94.8276 0 113.306 6.60036 123 17C126.22 20.4435 128.173 23.944 129 27C129.598 28.5029 129.817 29.5236 130 30C129.986 30.8164 130 31.0205 130 31V70C130 69.8964 129.972 70.5012 130 71C129.739 73.1171 129.471 75.0149 129 77C127.814 82.9912 125.606 88.911 122 94C112.283 110.337 94.2553 120 65 120C35.7448 120 17.7164 110.338 8 94C4.39414 88.9108 2.1865 82.9912 1 77C0.529043 75.0149 0.261028 73.1171 0 71C0.0282767 70.5466 6.49997e-05 69.6771 0 70V31Z" fill="#E1E6E8"/><mask id="faceRound02Mask0" mask-type="alpha" maskUnits="userSpaceOnUse" x="0" y="0" width="130" height="120"><path fill-rule="evenodd" clip-rule="evenodd" d="M0 31C0 31.0205 0.0141049 30.8164 0 30C0.183375 29.5235 0.402009 28.5029 1 27C1.82671 23.944 3.7804 20.4435 7 17C16.6944 6.60017 35.1724 0 65 0C94.8276 0 113.306 6.60036 123 17C126.22 20.4435 128.173 23.944 129 27C129.598 28.5029 129.817 29.5236 130 30C129.986 30.8164 130 31.0205 130 31V70C130 69.8964 129.972 70.5012 130 71C129.739 73.1171 129.471 75.0149 129 77C127.814 82.9912 125.606 88.911 122 94C112.283 110.337 94.2553 120 65 120C35.7448 120 17.7164 110.338 8 94C4.39414 88.9108 2.1865 82.9912 1 77C0.529043 75.0149 0.261028 73.1171 0 71C0.0282767 70.5466 6.49997e-05 69.6771 0 70V31Z" fill="white"/></mask><g mask="url(#faceRound02Mask0)"><rect x="-4" y="-2" width="138" height="124" fill="#8E24AA"/><path fill-rule="evenodd" clip-rule="evenodd" d="M120 130.649C116.812 113.308 110.453 128.073 95.1523 125.017C88.3923 123.666 93.8542 117.769 88.8124 115.213C84.5536 113.054 78.7499 114.793 73.8715 113.397C66.8312 111.382 66.9237 107.282 60.3639 106.669C54.1604 106.09 47.6616 107.999 41.4049 107.282C29.5967 105.928 34.4383 88.0585 25.5835 84.9025C16.7287 81.7465 2.15043 87.1967 0.242157 96.1317C-1.61816 104.842 10.8129 137.252 10.8129 137.252H120" fill="black" fill-opacity="0.2"/><path fill-rule="evenodd" clip-rule="evenodd" d="M156 122.767C104.757 122.767 99.4219 96.9746 74.2092 85.1582C48.9964 73.3418 26.9059 103.905 18.4298 74.2122C9.9537 44.5195 10.0005 137.072 10.0005 137.072H156V122.767Z" fill="black" fill-opacity="0.1"/><path fill-rule="evenodd" clip-rule="evenodd" d="M161.575 9.17587C149.64 8.20079 156.546 19.9843 151.83 19.9843C144.863 19.9843 149.727 12.0062 141.247 12.2048C139.028 12.2568 136.303 14.1443 136.135 16.709C135.773 22.2193 139.852 31.7253 134.297 31.9953C129.117 32.247 133.193 22.3562 132.652 15.7593C132.343 11.9871 128.47 9.00745 125.684 9.00745C118.113 9.00745 123.998 24.7147 118.549 24.7147C113.1 24.7147 117.341 15.6639 113.467 10.8715C108.964 5.29973 94.1677 2.55906 104.718 0H161.867" fill="black" fill-opacity="0.4"/></g></g><g transform="translate(52, 124)"><path fill-rule="evenodd" clip-rule="evenodd" d="M18 10.2222C18 21.7845 24.4741 28 38 28C51.5182 28 58 21.6615 58 10.2222C58 9.49622 57.1739 8 55 8C39.2707 8 29.1917 8 21 8C18.949 8 18 9.38479 18 10.2222Z" fill="black" fill-opacity="0.8"/><mask id="mouthSmilie02Mask0" mask-type="alpha" maskUnits="userSpaceOnUse" x="18" y="8" width="40" height="20"><path fill-rule="evenodd" clip-rule="evenodd" d="M18 10.2222C18 21.7845 24.4741 28 38 28C51.5182 28 58 21.6615 58 10.2222C58 9.49622 57.1739 8 55 8C39.2707 8 29.1917 8 21 8C18.949 8 18 9.38479 18 10.2222Z" fill="white"/></mask><g mask="url(#mouthSmilie02Mask0)"><rect x="30" y="2" width="16" height="14" rx="2" fill="white"/></g></g><g transform="translate(38, 76)"><path d="M18 19L30 17" stroke="black" stroke-width="4" stroke-linecap="round" stroke-linejoin="round"/><path d="M20 31C20 27.686 22.9098 25 27 25C30.0902 25 33 27.686 33 31" stroke="black" stroke-width="4" stroke-linecap="round" stroke-linejoin="round"/><path d="M86 20L74 17" stroke="black" stroke-width="4" stroke-linecap="round" stroke-linejoin="round"/><path d="M84 31C84 27.686 81.0902 25 78 25C73.9098 25 71 27.686 71 31" stroke="black" stroke-width="4" stroke-linecap="round" stroke-linejoin="round"/></g></g></svg>