<svg xmlns:dc="http://purl.org/dc/elements/1.1/" xmlns:cc="http://creativecommons.org/ns#" xmlns:rdf="http://www.w3.org/1999/02/22-rdf-syntax-ns#" xmlns:svg="http://www.w3.org/2000/svg" xmlns="http://www.w3.org/2000/svg" viewBox="0 0 180 180"><metadata><rdf:RDF><cc:Work><dc:format>image/svg+xml</dc:format><dc:type rdf:resource="http://purl.org/dc/dcmitype/StillImage"/><dc:title>Bottts</dc:title><dc:creator><cc:Agent><dc:title>Pablo Stanley</dc:title></cc:Agent></dc:creator><dc:source>https://bottts.com/</dc:source><cc:license rdf:resource="https://bottts.com/"/><dc:contributor><cc:Agent><dc:title>Florian Körner</dc:title></cc:Agent></dc:contributor></cc:Work></rdf:RDF></metadata><mask id="avatarsRadiusMask"><rect width="180" height="180" rx="0" ry="0" x="0" y="0" fill="#fff"/></mask><g mask="url(#avatarsRadiusMask)"><g transform="translate(0, 66)"><path fill-rule="evenodd" clip-rule="evenodd" d="M14.9809 20.9141C14 22.8393 14 25.3595 14 30.4V45.6C14 50.6405 14 53.1607 14.9809 55.0859C15.8438 56.7794 17.2206 58.1562 18.9141 59.0191C20.8393 60 23.3595 60 28.4 60H35.6C40.6405 60 43.1607 60 45.0859 59.0191C46.7794 58.1562 48.1562 56.7794 49.0191 55.0859C50 53.1607 50 50.6405 50 45.6V30.4C50 25.3595 50 22.8393 49.0191 20.9141C48.1562 19.2206 46.7794 17.8438 45.0859 16.9809C43.1607 16 40.6405 16 35.6 16H28.4C23.3595 16 20.8393 16 18.9141 16.9809C17.2206 17.8438 15.8438 19.2206 14.9809 20.9141ZM130.981 20.9141C130 22.8393 130 25.3595 130 30.4V45.6C130 50.6405 130 53.1607 130.981 55.0859C131.844 56.7794 133.221 58.1562 134.914 59.0191C136.839 60 139.36 60 144.4 60H151.6C156.64 60 159.161 60 161.086 59.0191C162.779 58.1562 164.156 56.7794 165.019 55.0859C166 53.1607 166 50.6405 166 45.6V30.4C166 25.3595 166 22.8393 165.019 20.9141C164.156 19.2206 162.779 17.8438 161.086 16.9809C159.161 16 156.64 16 151.6 16H144.4C139.36 16 136.839 16 134.914 16.9809C133.221 17.8438 131.844 19.2206 130.981 20.9141Z" fill="#0076DE"/><mask id="sidesSquareMask0" mask-type="alpha" maskUnits="userSpaceOnUse" x="14" y="16" width="152" height="44"><path fill-rule="evenodd" clip-rule="evenodd" d="M14.9809 20.9141C14 22.8393 14 25.3595 14 30.4V45.6C14 50.6405 14 53.1607 14.9809 55.0859C15.8438 56.7794 17.2206 58.1562 18.9141 59.0191C20.8393 60 23.3595 60 28.4 60H35.6C40.6405 60 43.1607 60 45.0859 59.0191C46.7794 58.1562 48.1562 56.7794 49.0191 55.0859C50 53.1607 50 50.6405 50 45.6V30.4C50 25.3595 50 22.8393 49.0191 20.9141C48.1562 19.2206 46.7794 17.8438 45.0859 16.9809C43.1607 16 40.6405 16 35.6 16H28.4C23.3595 16 20.8393 16 18.9141 16.9809C17.2206 17.8438 15.8438 19.2206 14.9809 20.9141ZM130.981 20.9141C130 22.8393 130 25.3595 130 30.4V45.6C130 50.6405 130 53.1607 130.981 55.0859C131.844 56.7794 133.221 58.1562 134.914 59.0191C136.839 60 139.36 60 144.4 60H151.6C156.64 60 159.161 60 161.086 59.0191C162.779 58.1562 164.156 56.7794 165.019 55.0859C166 53.1607 166 50.6405 166 45.6V30.4C166 25.3595 166 22.8393 165.019 20.9141C164.156 19.2206 162.779 17.8438 161.086 16.9809C159.161 16 156.64 16 151.6 16H144.4C139.36 16 136.839 16 134.914 16.9809C133.221 17.8438 131.844 19.2206 130.981 20.9141Z" fill="white"/></mask><g mask="url(#sidesSquareMask0)"><rect width="180" height="76" fill="#7E57C2"/><rect y="38" width="180" height="38" fill="black" fill-opacity="0.1"/></g></g><g transform="translate(41, 0)"><path fill-rule="evenodd" clip-rule="evenodd" d="M48 0C39.1634 0 32 7.16344 32 16V32C32 36.4183 35.5817 40 40 40H23C22.4477 40 22 40.4477 22 41V51C22 51.5523 22.4477 52 23 52H77C77.5523 52 78 51.5523 78 51V41C78 40.4477 77.5523 40 77 40H60C64.4183 40 68 36.4183 68 32V16C68 7.16344 60.8366 0 52 0H48Z" fill="#59C4FF"/><mask id="topBulb011Mask0" mask-type="alpha" maskUnits="userSpaceOnUse" x="22" y="0" width="56" height="52"><path fill-rule="evenodd" clip-rule="evenodd" d="M48 0C39.1634 0 32 7.16344 32 16V32C32 36.4183 35.5817 40 40 40H23C22.4477 40 22 40.4477 22 41V51C22 51.5523 22.4477 52 23 52H77C77.5523 52 78 51.5523 78 51V41C78 40.4477 77.5523 40 77 40H60C64.4183 40 68 36.4183 68 32V16C68 7.16344 60.8366 0 52 0H48Z" fill="white"/></mask><g mask="url(#topBulb011Mask0)"><rect width="100" height="52" fill="#7E57C2"/><rect x="20" y="-3" width="60" height="43" fill="white" fill-opacity="0.4"/><path d="M49 3.5C53.9315 3.5 58.366 5.62814 61.4352 9.01616" stroke="white" stroke-width="2" stroke-linecap="round"/><path fill-rule="evenodd" clip-rule="evenodd" d="M49.8284 26L40.8284 17L38 19.8284L48 29.8284V40H52V29.9706L62.1421 19.8284L59.3137 17L50.3137 26H49.8284Z" fill="white" fill-opacity="0.8"/></g></g><g transform="translate(25, 44)"><path fill-rule="evenodd" clip-rule="evenodd" d="M0 31C0 31.0205 0.0141049 30.8164 0 30C0.183375 29.5235 0.402009 28.5029 1 27C1.82671 23.944 3.7804 20.4435 7 17C16.6944 6.60017 35.1724 0 65 0C94.8276 0 113.306 6.60036 123 17C126.22 20.4435 128.173 23.944 129 27C129.598 28.5029 129.817 29.5236 130 30C129.986 30.8164 130 31.0205 130 31V70C130 69.8964 129.972 70.5012 130 71C129.739 73.1171 129.471 75.0149 129 77C127.814 82.9912 125.606 88.911 122 94C112.283 110.337 94.2553 120 65 120C35.7448 120 17.7164 110.338 8 94C4.39414 88.9108 2.1865 82.9912 1 77C0.529043 75.0149 0.261028 73.1171 0 71C0.0282767 70.5466 6.49997e-05 69.6771 0 70V31Z" fill="#E1E6E8"/><mask id="faceRound02Mask0" mask-type="alpha" maskUnits="userSpaceOnUse" x="0" y="0" width="130" height="120"><path fill-rule="evenodd" clip-rule="evenodd" d="M0 31C0 31.0205 0.0141049 30.8164 0 30C0.183375 29.5235 0.402009 28.5029 1 27C1.82671 23.944 3.7804 20.4435 7 17C16.6944 6.60017 35.1724 0 65 0C94.8276 0 113.306 6.60036 123 17C126.22 20.4435 128.173 23.944 129 27C129.598 28.5029 129.817 29.5236 130 30C129.986 30.8164 130 31.0205 130 31V70C130 69.8964 129.972 70.5012 130 71C129.739 73.1171 129.471 75.0149 129 77C127.814 82.9912 125.606 88.911 122 94C112.283 110.337 94.2553 120 65 120C35.7448 120 17.7164 110.338 8 94C4.39414 88.9108 2.1865 82.9912 1 77C0.529043 75.0149 0.261028 73.1171 0 71C0.0282767 70.5466 6.49997e-05 69.6771 0 70V31Z" fill="white"/></mask><g mask="url(#faceRound02Mask0)"><rect x="-4" y="-2" width="138" height="124" fill="#5E35B1"/></g></g><g transform="translate(52, 124)"><path fill-rule="evenodd" clip-rule="evenodd" d="M18 10.2222C18 21.7845 24.4741 28 38 28C51.5182 28 58 21.6615 58 10.2222C58 9.49622 57.1739 8 55 8C39.2707 8 29.1917 8 21 8C18.949 8 18 9.38479 18 10.2222Z" fill="black" fill-opacity="0.8"/><mask id="mouthSmilie02Mask0" mask-type="alpha" maskUnits="userSpaceOnUse" x="18" y="8" width="40" height="20"><path fill-rule="evenodd" clip-rule="evenodd" d="M18 10.2222C18 21.7845 24.4741 28 38 28C51.5182 28 58 21.6615 58 10.2222C58 9.49622 57.1739 8 55 8C39.2707 8 29.1917 8 21 8C18.949 8 18 9.38479 18 10.2222Z" fill="white"/></mask><g mask="url(#mouthSmilie02Mask0)"><rect x="30" y="2" width="16" height="14" rx="2" fill="white"/></g></g><g transform="translate(38, 76)"><path d="M29.2691 9.67983C26.7216 9.81334 24.305 11.9225 23.0195 13.8332C21.5357 12.0676 18.9175 10.2223 16.3701 10.3558C10.8883 10.6431 7.51531 14.1586 7.74073 18.4598C8.0406 24.1816 12.6244 27.3464 17.4365 30.7046C19.1523 31.8531 22.441 34.8494 22.8627 35.5214C23.2845 36.1935 25.0034 36.1278 25.4425 35.3862C25.8817 34.6446 28.7463 31.3502 30.3355 30.0286C34.7674 26.1859 38.9981 22.5592 38.6982 16.8374C38.4728 12.5362 34.7509 9.39254 29.2691 9.67983Z" fill="#FF5353" fill-opacity="0.8"/><path d="M87.6299 10.3558C85.0825 10.2223 82.4586 12.0673 80.9805 13.8332C79.6893 11.9222 77.2784 9.81331 74.7309 9.67981C69.2491 9.39252 65.5272 12.5361 65.3017 16.8374C65.0019 22.5591 69.2297 26.1857 73.6645 30.0286C75.2508 31.3501 78.2083 34.6738 78.5575 35.3862C78.9067 36.0987 80.623 36.2131 81.1373 35.5214C81.6515 34.8298 84.8449 31.8529 86.5635 30.7046C91.3728 27.3462 95.9594 24.1816 96.2593 18.4598C96.4847 14.1586 93.1117 10.6431 87.6299 10.3558Z" fill="#FF5353" fill-opacity="0.8"/></g></g></svg>