<svg xmlns:dc="http://purl.org/dc/elements/1.1/" xmlns:cc="http://creativecommons.org/ns#" xmlns:rdf="http://www.w3.org/1999/02/22-rdf-syntax-ns#" xmlns:svg="http://www.w3.org/2000/svg" xmlns="http://www.w3.org/2000/svg" viewBox="0 0 180 180"><metadata><rdf:RDF><cc:Work><dc:format>image/svg+xml</dc:format><dc:type rdf:resource="http://purl.org/dc/dcmitype/StillImage"/><dc:title>Bottts</dc:title><dc:creator><cc:Agent><dc:title>Pablo Stanley</dc:title></cc:Agent></dc:creator><dc:source>https://bottts.com/</dc:source><cc:license rdf:resource="https://bottts.com/"/><dc:contributor><cc:Agent><dc:title>Florian Körner</dc:title></cc:Agent></dc:contributor></cc:Work></rdf:RDF></metadata><mask id="avatarsRadiusMask"><rect width="180" height="180" rx="0" ry="0" x="0" y="0" fill="#fff"/></mask><g mask="url(#avatarsRadiusMask)"><g transform="translate(0, 66)"><path fill-rule="evenodd" clip-rule="evenodd" d="M12 39C12 50.9264 17.9543 61 28 61C38.0457 61 48 50.9264 48 39C48 26.0736 38.0457 16 28 16C17.9543 16 12 26.0736 12 39ZM168 39C168 50.9264 162.046 61 152 61C141.954 61 132 50.9264 132 39C132 26.0736 141.954 16 152 16C162.046 16 168 26.0736 168 39Z" fill="#E1E6E8"/><mask id="sidesRoundMask0" mask-type="alpha" maskUnits="userSpaceOnUse" x="12" y="16" width="156" height="45"><path fill-rule="evenodd" clip-rule="evenodd" d="M12 39C12 50.9264 17.9543 61 28 61C38.0457 61 48 50.9264 48 39C48 26.0736 38.0457 16 28 16C17.9543 16 12 26.0736 12 39ZM168 39C168 50.9264 162.046 61 152 61C141.954 61 132 50.9264 132 39C132 26.0736 141.954 16 152 16C162.046 16 168 26.0736 168 39Z" fill="white"/></mask><g mask="url(#sidesRoundMask0)"><rect width="180" height="76" fill="#EF5350"/><rect x="20" width="140" height="76" fill="black" fill-opacity="0.2"/></g></g><g transform="translate(41, 0)"><path fill-rule="evenodd" clip-rule="evenodd" d="M48 0C39.1634 0 32 7.16344 32 16V32C32 36.4183 35.5817 40 40 40H23C22.4477 40 22 40.4477 22 41V51C22 51.5523 22.4477 52 23 52H77C77.5523 52 78 51.5523 78 51V41C78 40.4477 77.5523 40 77 40H60C64.4183 40 68 36.4183 68 32V16C68 7.16344 60.8366 0 52 0H48Z" fill="#59C4FF"/><mask id="topBulb011Mask0" mask-type="alpha" maskUnits="userSpaceOnUse" x="22" y="0" width="56" height="52"><path fill-rule="evenodd" clip-rule="evenodd" d="M48 0C39.1634 0 32 7.16344 32 16V32C32 36.4183 35.5817 40 40 40H23C22.4477 40 22 40.4477 22 41V51C22 51.5523 22.4477 52 23 52H77C77.5523 52 78 51.5523 78 51V41C78 40.4477 77.5523 40 77 40H60C64.4183 40 68 36.4183 68 32V16C68 7.16344 60.8366 0 52 0H48Z" fill="white"/></mask><g mask="url(#topBulb011Mask0)"><rect width="100" height="52" fill="#EF5350"/><rect x="20" y="-3" width="60" height="43" fill="white" fill-opacity="0.4"/><path d="M49 3.5C53.9315 3.5 58.366 5.62814 61.4352 9.01616" stroke="white" stroke-width="2" stroke-linecap="round"/><path fill-rule="evenodd" clip-rule="evenodd" d="M49.8284 26L40.8284 17L38 19.8284L48 29.8284V40H52V29.9706L62.1421 19.8284L59.3137 17L50.3137 26H49.8284Z" fill="white" fill-opacity="0.8"/></g></g><g transform="translate(25, 44)"><path fill-rule="evenodd" clip-rule="evenodd" d="M66 0C124.352 0 130.001 40.6854 130 78C129.999 111.315 104.534 120 66 120C28.5387 120 0 111.315 0 78C0 40.6854 7.64843 0 66 0Z" fill="black" fill-opacity="0.8"/><mask id="faceRound01Mask0" mask-type="alpha" maskUnits="userSpaceOnUse" x="0" y="0" width="130" height="120"><path fill-rule="evenodd" clip-rule="evenodd" d="M66 0C124.352 0 130.001 40.6854 130 78C129.999 111.315 104.534 120 66 120C28.5387 120 0 111.315 0 78C0 40.6854 7.64843 0 66 0Z" fill="white"/></mask><g mask="url(#faceRound01Mask0)"><rect x="-4" y="-2" width="138" height="124" fill="#E53935"/></g></g><g transform="translate(52, 124)"><path fill-rule="evenodd" clip-rule="evenodd" d="M18 10.2222C18 21.7845 24.4741 28 38 28C51.5182 28 58 21.6615 58 10.2222C58 9.49622 57.1739 8 55 8C39.2707 8 29.1917 8 21 8C18.949 8 18 9.38479 18 10.2222Z" fill="black" fill-opacity="0.8"/><mask id="mouthSmilie02Mask0" mask-type="alpha" maskUnits="userSpaceOnUse" x="18" y="8" width="40" height="20"><path fill-rule="evenodd" clip-rule="evenodd" d="M18 10.2222C18 21.7845 24.4741 28 38 28C51.5182 28 58 21.6615 58 10.2222C58 9.49622 57.1739 8 55 8C39.2707 8 29.1917 8 21 8C18.949 8 18 9.38479 18 10.2222Z" fill="white"/></mask><g mask="url(#mouthSmilie02Mask0)"><rect x="30" y="2" width="16" height="14" rx="2" fill="white"/></g></g><g transform="translate(38, 76)"><rect x="8" y="10" width="88" height="36" rx="4" fill="black" fill-opacity="0.8"/><rect x="28" y="21" width="10" height="17" rx="2" fill="#5EF2B8"/><rect x="66" y="21" width="10" height="17" rx="2" fill="#5EF2B8"/><path fill-rule="evenodd" clip-rule="evenodd" d="M83 10H88L76 46H71L83 10Z" fill="white" fill-opacity="0.4"/></g></g></svg>